<svg width="1000" height="321" viewBox="0 0 1000 321" fill="none" xmlns="http://www.w3.org/2000/svg">
<path d="M260.508 316.214C285.718 317.312 309.467 318.775 331.146 320.604C298.71 285.885 228.927 251.563 163.929 251.563C102.868 251.563 31.682 279.096 0 319.263L0.244003 319.75C26.55 310.238 60.773 302.069 71.49 299.63C73.561 299.142 75.388 298.654 77.337 298.288L77.374 298.28C77.965 298.161 78.45 298.064 79.285 299.02C81.242 298.694 81.827 299.02 85.131 297.8C88.435 296.581 116.318 291.962 126.418 290.849L126.809 290.806C136.598 289.728 139.705 289.386 146.269 289.386H152.725C155.336 289.387 158.053 289.526 160.636 289.836C162.983 290.118 163.929 290.361 163.929 290.361L163.984 290.372C164.604 290.488 165.213 290.603 165.878 290.849C165.878 290.849 166.73 291.215 167.095 291.337C168.991 292.495 169.166 294.874 167.339 298.044C166.121 299.996 164.538 302.191 162.346 304.264C158.57 307.8 156.256 309.751 150.166 314.141V314.263C154.315 313.13 158.493 311.915 162.589 310.605C165.873 309.701 169.15 308.749 172.454 307.922C175.447 307.173 178.064 306.586 181.143 305.79C184.223 304.993 187.742 304.409 191.088 303.776C193.923 303.289 196.763 302.695 199.613 302.313C202.775 301.753 205.932 301.175 209.113 300.727C221.818 299.183 234.402 297.556 247.233 297.556H259.29C260.699 297.556 262.151 297.66 263.553 297.8C264.357 297.901 265.177 298.044 265.988 298.044C271.347 298.898 274.635 300.239 274.635 302.19C274.635 305.848 268.911 310.849 260.508 316.214Z" fill="#F7931A"/>
<path d="M143.355 97.9079C147.327 97.0379 154.685 97.1829 156.695 97.9079C159.119 97.8479 170.279 97.7629 173.543 97.9079C177.621 98.0889 195.001 104.988 201.385 106.8C207.769 108.612 227.985 110.062 235.788 110.062C243.591 110.062 248.911 110.244 253.699 110.062C258.487 109.881 263.985 114.05 269.837 118.944C275.689 123.837 277.995 124.381 279.768 125.106C281.543 125.832 296.438 130.544 300.871 132.175C305.305 133.806 314.349 133.806 315.945 134.531C317.541 135.256 319.315 137.612 319.315 141.237C319.315 144.137 314.77 142.837 314.349 145.406C313.928 147.975 318.038 150.3 319.315 151.75C320.592 153.2 321.957 155.292 317.719 156.1C313.48 156.907 303.851 149.611 300.871 148.306C297.147 146.675 294.31 149.394 291.827 149.938C289.344 150.482 280.122 155.012 274.98 153.562C270.866 152.402 269.837 151.871 269.837 151.75C266.763 152.173 259.8 153.127 256.537 153.562C252.458 154.106 248.734 157.731 241.108 162.987C233.483 168.243 216.636 171.868 213.976 171.869C211.316 171.869 207.059 175.493 205.286 176.037C203.513 176.581 196.243 178.212 195.001 179.481C193.759 180.75 187.73 189.812 187.02 191.444C186.452 192.749 178.744 198.392 174.961 201.05C174.784 203.95 174.43 209.93 174.429 210.656C174.429 211.562 176.912 211.744 176.557 212.106C176.203 212.469 175.316 215.913 175.139 216.637C174.961 217.363 172.124 221.712 171.415 222.981L167.336 232.768C167.04 233.554 166.627 235.342 167.336 236.212C168.045 237.082 172.124 235.487 174.075 234.581C174.429 234.702 175.032 235.234 174.606 236.394C174.074 237.843 170.528 239.293 169.641 239.656C168.755 240.018 166.449 239.837 163.257 240.018C160.065 240.2 155.454 242.556 152.262 243.462C149.708 244.187 147.178 247.873 146.232 249.625C146.764 250.652 147.828 252.778 147.829 253.068C147.829 253.431 149.424 256.331 149.602 257.6C149.779 258.868 150.311 258.869 152.085 258.506C153.503 258.216 153.326 255.063 154.567 257.6C155.809 260.137 154.567 260.137 154.567 260.137V261.587L147.829 264.487L146.232 265.394C146.204 265.393 143.048 265.295 144.46 269.445C145.876 273.607 152.244 278.855 152.262 278.87H140.204C130.273 279.172 110.482 279.414 110.766 277.964C111.114 276.187 114.7 274.584 117.514 273.326L117.682 273.251C118.761 272.768 119.225 273.247 119.404 273.696C119.384 273.258 119.386 272.527 119.454 271.375C119.809 265.394 117.504 267.206 117.504 265.394C117.504 263.581 130.272 252.525 132.223 245.818C133.398 241.777 133.287 234.581 134.174 230.231C135.06 225.881 137.72 224.612 138.075 220.987C138.429 217.362 129.031 212.106 126.726 209.206C124.42 206.306 119.455 199.962 117.681 195.975C115.908 191.987 111.297 188 108.814 185.462C106.332 182.925 99.593 182.744 99.238 181.112C98.954 179.807 101.129 180.206 102.253 180.568V176.037C101.011 174.164 98.2799 169.947 97.2869 168.062C96.2939 166.177 98.647 160.752 99.947 158.275C97.11 155.677 88.6679 151.279 77.6029 154.469C63.7709 158.456 58.8049 151.75 55.0809 150.481C51.3569 149.212 51.534 144.5 44.44 143.413C37.347 142.325 29.1209 144.769 27.2389 141.237C26.5769 139.994 30.0759 137.431 31.4949 135.438C32.9139 133.444 42.772 133.222 45.255 132.86C47.737 132.497 49.7609 131.087 51.5339 129.093C53.3069 127.1 59.337 123.656 69.268 121.119C77.213 119.088 92.0849 114.714 98.5279 112.781C100.378 110.186 97.0959 109.728 98.5279 106.8C99.5929 104.625 122.341 105.556 127.307 104.287C132.273 103.018 138.39 98.9949 143.355 97.9079ZM165.917 207.031C165.622 207.152 164.605 208.083 162.903 210.837C160.774 214.281 158.646 217 156.695 218.994C154.745 220.987 151.73 222.981 151.02 225.337C150.453 227.222 149.72 231.319 149.425 233.131C152.794 231.681 159.888 228.092 161.306 225.337C163.08 221.894 165.385 216.819 165.917 213.556C166.343 210.946 166.095 208.119 165.917 207.031ZM152.085 154.469C152.085 154.106 149.247 151.931 144.637 156.281C140.948 159.761 135.297 157.731 132.932 156.281C131.395 157.187 127.967 158.855 126.548 158.275C125.129 157.695 123.119 155.858 122.292 155.012L118.922 154.469C118.095 155.919 116.191 159.435 115.198 161.9C114.205 164.365 110.41 168.969 108.637 170.963C108.459 172.05 108.389 174.587 109.524 176.037C110.942 177.85 120.164 183.288 121.228 185.1C122.292 186.913 130.272 199.781 131.868 201.593C133.464 203.406 135.592 204.494 135.592 204.494C135.592 204.494 139.238 206.826 140.735 208.3C142.232 209.774 144.282 213.556 144.282 213.556C145.819 213.677 149.318 213.302 151.02 210.837C153.148 207.756 159.001 202.319 158.292 198.694C159.001 195.055 159.001 191.988 159.001 191.988C159.001 191.988 157.972 182.453 156.695 179.843C155.099 176.581 152.085 171.325 152.085 170.056C152.085 168.787 156.518 164.981 155.1 161.9C153.681 158.819 152.085 154.831 152.085 154.469ZM166.449 173.137C165.314 171.978 164.558 172.292 164.321 172.594C163.848 173.682 162.973 176.255 163.257 177.85C163.612 179.844 164.675 183.288 164.853 185.1C165.03 186.913 164.853 192.349 165.207 193.981C165.491 195.286 165.587 196.834 166.707 196.07C167.827 195.306 168.151 190.501 168.577 188.906C169.109 186.913 170.883 182.925 170.705 180.931C170.528 178.938 167.868 174.587 166.449 173.137ZM198.725 149.031C195.533 148.125 193.937 144.681 188.616 146.856C183.296 149.031 174.429 151.568 173.543 151.931C172.656 152.293 168.045 153.2 167.513 155.375C167.087 157.115 165.799 160.45 165.207 161.9L167.513 164.981C168.577 165.525 168.577 165.525 169.641 167.337C170.152 168.208 173.188 172.835 174.961 174.95L175.493 175.312C176.085 175.433 177.515 175.602 178.508 175.312C179.749 174.95 180.991 174.225 183.296 173.681C185.602 173.138 200.143 169.331 202.271 167.7C203.974 166.395 206.173 165.344 207.059 164.981C208.532 163.894 208.766 159.244 208.057 156.634C207.348 154.024 206.158 152.679 204.021 150.843C201.885 149.008 202.606 150.133 198.725 149.031ZM221.601 142.156C217.877 142.704 216.281 144.863 216.636 146.131C217.322 148.589 218.901 150.297 219.118 152.679C219.344 155.149 219.473 157.731 219.118 158.637C218.764 159.544 218.114 161.001 218.74 162.814C219.366 164.626 223.327 165.268 225.68 163.894C228.162 162.444 227.985 162.262 231.887 161.175C235.789 160.087 253.103 150.775 252.926 149.325C252.749 147.875 251.571 147.037 251.039 146.675C250.506 146.312 246.606 145.452 243.414 145.089C234.442 144.07 225.325 141.609 221.601 142.156Z" fill="#F7931A"/>
<path d="M178.565 0C178.067 10.367 177.556 20.653 177.031 31.37L195.881 30.468L196.393 31.546L160.173 83.69V47.338H143.557C143.975 43.326 175.051 0.6732 178.565 0Z" fill="#F7931A"/>
<path d="M134.49 61.335L147.025 59.665L127.043 95.007L126.169 94.927C125.764 87.535 125.36 80.116 124.943 72.55L114.171 74.071C115.181 68.686 130.678 42.849 133.305 42.041C133.641 48.45 134.044 54.778 134.49 61.335Z" fill="#F7931A"/>
<path d="M185.267 69.547C195.959 56.69 196.174 56.905 209.166 42.041C208.278 48.773 207.43 55.249 206.582 61.658C209.651 62.102 212.196 62.385 214.66 62.883C216.586 63.273 217.07 64.485 215.791 66.087C210.486 72.684 205.141 79.255 199.822 85.838C198.125 87.925 196.484 90.066 194.733 92.113C194.103 92.733 193.413 93.288 192.672 93.769L191.757 93.311L195.621 70.732L185.267 69.547Z" fill="#F7931A"/>
<path d="M999.52 285.999V290.433L979.35 303.776H999.52V308.21H972.47V303.776L992.6 290.433H972.47V285.999H999.52Z" fill="white"/>
<path d="M994 258.315V269.634L999.52 271.579V276.208L972.47 266.522V261.388L999.52 251.702V256.37L994 258.315ZM990.38 259.56L977.83 263.955L990.38 268.39V259.56Z" fill="white"/>
<path d="M972.5 237.494H999.52V241.928H972.5V237.494Z" fill="white"/>
<path d="M999.52 212.067L988.71 218.291V221.675H999.52V226.109H972.5V216.774C972.5 214.699 972.87 212.949 973.59 211.522C974.32 210.07 975.29 208.994 976.51 208.294C977.73 207.568 979.09 207.205 980.59 207.205C982.35 207.205 983.96 207.723 985.41 208.761C986.83 209.772 987.8 211.341 988.32 213.467L999.52 206.777V212.067ZM985.18 221.675V216.774C985.18 215.114 984.76 213.869 983.93 213.039C983.1 212.184 981.99 211.756 980.59 211.756C979.19 211.756 978.1 212.171 977.32 213.001C976.52 213.83 976.12 215.088 976.12 216.774V221.675H985.18Z" fill="white"/>
<path d="M999.79 183.639C999.79 186.154 999.21 188.475 998.04 190.601C996.85 192.702 995.2 194.375 993.1 195.619C990.98 196.838 988.6 197.448 985.95 197.448C983.31 197.448 980.94 196.838 978.84 195.619C976.74 194.375 975.11 192.702 973.94 190.601C972.75 188.475 972.16 186.154 972.16 183.639C972.16 181.097 972.75 178.776 973.94 176.676C975.11 174.549 976.74 172.877 978.84 171.658C980.94 170.439 983.31 169.83 985.95 169.83C988.6 169.83 990.98 170.439 993.1 171.658C995.2 172.877 996.85 174.549 998.04 176.676C999.21 178.776 999.79 181.097 999.79 183.639ZM995.94 183.639C995.94 181.849 995.54 180.254 994.74 178.854C993.91 177.454 992.74 176.365 991.24 175.587C989.71 174.783 987.95 174.381 985.95 174.381C983.96 174.381 982.21 174.783 980.71 175.587C979.2 176.365 978.05 177.454 977.25 178.854C976.44 180.254 976.04 181.849 976.04 183.639C976.04 185.428 976.44 187.023 977.25 188.423C978.05 189.824 979.2 190.926 980.71 191.73C982.21 192.508 983.96 192.897 985.95 192.897C987.95 192.897 989.71 192.508 991.24 191.73C992.74 190.926 993.91 189.824 994.74 188.423C995.54 187.023 995.94 185.428 995.94 183.639Z" fill="white"/>
<path d="M985.64 145.433C985.9 143.981 986.66 142.749 987.93 141.738C989.2 140.727 990.64 140.221 992.25 140.221C993.62 140.221 994.87 140.584 995.98 141.31C997.07 142.01 997.94 143.035 998.58 144.383C999.21 145.732 999.52 147.301 999.52 149.09V159.904H972.5V149.596C972.5 147.754 972.82 146.172 973.44 144.85C974.06 143.527 974.9 142.529 975.96 141.855C977 141.181 978.17 140.843 979.46 140.843C981.02 140.843 982.31 141.258 983.35 142.088C984.38 142.918 985.15 144.033 985.64 145.433ZM983.85 155.469V149.985C983.85 148.532 983.53 147.404 982.88 146.6C982.21 145.771 981.25 145.356 980.01 145.356C978.79 145.356 977.84 145.771 977.17 146.6C976.47 147.404 976.12 148.532 976.12 149.985V155.469H983.85ZM995.9 149.479C995.9 147.975 995.54 146.795 994.81 145.939C994.09 145.083 993.08 144.655 991.78 144.655C990.46 144.655 989.41 145.109 988.63 146.017C987.86 146.925 987.47 148.13 987.47 149.634V155.469H995.9V149.479Z" fill="white"/>
<path d="M972.5 125.405H999.52V129.84H972.5V125.405Z" fill="white"/>
<path d="M938.39 214.379V308.21C926.97 308.21 915.74 308.21 904.5 308.113C903.59 308.113 902.39 306.937 901.83 305.998C894.97 294.584 888.227 283.1 881.439 271.645C881.096 271.211 880.722 270.804 880.32 270.426V308.029H844.034V214.085H865.654C869.292 214.085 872.917 214.211 876.541 214.085C877.548 213.998 878.557 214.231 879.425 214.753C880.291 215.273 880.971 216.054 881.369 216.984C887.974 228.328 894.78 239.56 902.01 251.66V214.379H938.39Z" fill="#F7931A"/>
<path d="M734.939 309.794C722.765 309.934 711.457 306.993 701.662 299.599C691.559 291.937 684.869 282.064 682.812 269.209C680.181 252.277 684.996 237.909 697.505 226.285C705.553 218.834 715.222 214.801 726.109 213.204C741.502 210.95 755.496 214.185 767.978 223.357C772.908 226.807 777.083 231.227 780.242 236.35C783.402 241.472 785.482 247.188 786.351 253.145C787.922 262.113 786.908 271.343 783.427 279.753C780.995 285.714 777.349 291.1 772.72 295.571C768.091 300.042 762.583 303.497 756.545 305.718C749.801 308.337 742.383 309.247 735.274 310.928L734.939 309.794ZM748.149 261.8C748.246 253.313 742.09 248.341 734.644 247.627C727.648 246.969 721.002 254.504 720.903 262.08C720.918 265.732 722.373 269.229 724.952 271.813C727.53 274.397 731.024 275.856 734.673 275.875C742.159 275.847 748.863 269.279 748.149 261.842V261.8Z" fill="#F7931A"/>
<path d="M430.913 257.247C438.413 260.314 444.207 265.174 445.522 272.946C447.831 286.642 445.298 298.561 428.408 304.12C420.899 306.463 413.109 307.781 405.248 308.042C391.8 308.658 378.311 308.21 364.835 308.21H360.441V214.379C361.546 214.295 362.652 214.154 363.757 214.154C377.485 214.154 391.241 213.665 404.941 214.309C415.268 214.785 425.497 216.2 434.999 221.423C446.781 227.893 446.572 250.413 433.39 255.721C432.53 256.173 431.703 256.683 430.913 257.247ZM398.391 270.383V283.884C406.788 284.486 410.986 281.979 410.832 276.951C410.678 271.924 406.228 269.613 398.335 270.383H398.391ZM398.545 252.177C402.743 252.444 406.662 252.331 408.341 248.256C408.71 247.301 408.87 246.278 408.81 245.257C408.749 244.234 408.47 243.237 407.991 242.332C405.794 239.251 402.128 239.111 398.503 239.138L398.545 252.177Z" fill="#F7931A"/>
<path d="M676.627 254.139C667.979 248.902 659.135 247.78 649.956 248.314C646.443 248.576 643.118 250 640.502 252.36C637.885 254.72 636.126 257.883 635.501 261.351C634.814 266.491 640.663 273.325 647.045 274.768C656.645 276.924 665.74 275.159 674.529 271.113C675.088 270.846 675.718 270.706 676.627 270.399C676.627 281.503 676.627 292.343 676.53 303.197C676.401 303.759 676.141 304.284 675.773 304.727C675.403 305.171 674.932 305.52 674.403 305.746C657.246 311.348 640.048 312.117 623.381 304.345C609.164 297.679 599.676 286.392 596.794 270.93C592.162 246.268 605.19 223.315 630.953 215.515C644.806 211.314 658.338 212.028 671.968 215.767C674.879 216.565 676.907 217.965 676.768 221.929C676.389 232.376 676.627 242.879 676.627 254.139Z" fill="#F7931A"/>
<path d="M526.741 246.686H501.161V214.392H591.615V246.771H566.427V307.984H526.741V246.686Z" fill="#F7931A"/>
<path d="M790.381 125.407C799.099 125.407 807.509 125.309 815.907 125.519C816.6 125.658 817.256 125.94 817.834 126.352C818.41 126.762 818.893 127.289 819.25 127.9C823.883 135.463 828.319 143.152 832.824 150.797C833.104 151.288 833.426 151.763 834.307 153.15V125.687H862.169V198.511C853.773 198.511 845.573 198.624 837.344 198.385C836.253 198.385 834.924 196.733 834.196 195.584C828.962 186.971 823.854 178.289 818.173 168.737V198.259H790.381V125.407Z" fill="#F7931A"/>
<path d="M561.053 124.538C577.021 124.761 589.81 130.952 597.437 145.432C600.538 151.256 601.942 157.833 601.492 164.417C601.043 171 598.754 177.324 594.89 182.67C582.128 201.185 555.708 204.307 537.446 192.95C532.832 190.085 528.919 186.224 525.99 181.648C523.062 177.073 521.193 171.9 520.523 166.509C519.851 161.116 520.395 155.643 522.113 150.49C523.83 145.335 526.678 140.631 530.449 136.721C534.391 132.628 539.159 129.423 544.436 127.322C549.715 125.222 555.38 124.271 561.053 124.538ZM570.947 162.154C570.994 160.782 570.758 159.417 570.253 158.141C569.749 156.864 568.988 155.707 568.015 154.74C567.043 153.773 565.882 153.016 564.605 152.518C563.327 152.02 561.962 151.792 560.592 151.846C555.148 151.846 549.97 157.028 549.97 162.349C549.97 167.672 555.274 172.895 560.984 172.853C566.692 172.811 570.947 168.344 570.919 162.154H570.947Z" fill="#F7931A"/>
<path d="M445.158 197.754V126.134C457.151 126.134 468.947 126.134 480.8 126.134C488.085 126.23 495.181 128.471 501.203 132.577C509.836 138.277 515.35 145.993 516.595 156.847C518.107 169.269 514.693 179.478 505.653 187.853C499.522 193.551 491.613 196.956 483.263 197.488C470.808 198.357 458.144 197.754 445.158 197.754ZM475.426 173.667C480.604 173.821 484.564 172.266 486.999 167.939C488.192 166.106 488.782 163.944 488.684 161.758C488.586 159.573 487.806 157.473 486.453 155.754C485.259 154.009 483.573 152.656 481.611 151.867C479.648 151.081 477.496 150.892 475.426 151.329V173.667Z" fill="#F7931A"/>
<path d="M913.82 172.812H907.76V156.748H938.55C938.55 168.386 938.55 179.884 938.46 191.383C938.37 191.838 938.17 192.265 937.89 192.636C937.61 193.005 937.25 193.31 936.84 193.525C925.91 199.126 914.37 200.248 902.3 198.706C893.01 197.517 884.91 194.169 878.262 187.503C872.576 181.553 869.058 173.857 868.279 165.66C867.499 157.463 869.503 149.241 873.966 142.324C876.733 138.017 880.361 134.33 884.621 131.496C888.881 128.663 893.68 126.742 898.72 125.855C911.32 123.362 923.59 123.698 935.36 129.286C935.92 129.555 936.42 129.946 936.82 130.43C937.22 130.914 937.51 131.479 937.67 132.087C937.85 139.594 937.76 147.1 937.76 154.662C932.43 153.261 927.39 151.526 922.22 150.698C916.62 149.789 910.73 149.299 905.28 152.099C902.59 153.415 900.45 155.652 899.25 158.406C898.06 161.16 897.88 164.25 898.76 167.122C899.64 169.992 901.52 172.455 904.05 174.066C906.58 175.677 909.6 176.329 912.58 175.907C913.4 175.795 914.06 174.605 914.8 173.905C914.49 173.527 914.16 173.162 913.82 172.812Z" fill="#F7931A"/>
<path d="M358.146 198.526C359.545 194.563 360.609 191.23 361.84 187.939C369.304 167.894 376.818 147.876 384.384 127.887C384.664 127.28 385.084 126.75 385.609 126.339C386.135 125.926 386.751 125.646 387.407 125.52C396.586 125.325 405.78 125.409 415.072 125.409C424.056 149.693 432.998 173.864 442.108 198.512C431.585 198.512 421.537 198.512 411.476 198.428C410.72 198.428 409.615 197.252 409.307 196.398C408.509 194.142 408.061 191.777 407.446 189.395H390.835C390.336 191.672 389.701 193.916 388.932 196.117C388.512 197.112 387.197 198.4 386.259 198.415C377.205 198.596 368.165 198.526 358.146 198.526ZM395.691 171.007H402.926C401.764 166.428 400.687 162.171 399.413 157.184L395.691 171.007Z" fill="#F7931A"/>
<path d="M794.215 214.28H833.398V307.958H794.215V214.28Z" fill="#F7931A"/>
<path d="M636.914 180.95V198.316H606.982V125.577C608.088 125.577 609.333 125.394 610.578 125.423C621.913 125.661 633.247 125.856 644.583 126.207C656.561 126.57 668.847 135.17 670.932 145.294C674.193 161.121 668.259 174.704 649.859 179.004C645.786 179.956 641.588 180.278 636.914 180.95ZM637.152 148.18V159.384C640.063 160.14 642.596 159.314 643.7 156.821C644.442 154.901 644.442 152.774 643.7 150.855C642.666 148.292 640.105 147.521 637.152 148.193V148.18Z" fill="#F7931A"/>
<path d="M453.723 307.941V214.292H492.108V307.941H453.723Z" fill="#F7931A"/>
<path d="M745.56 151.079H725.8V198.245H695.392V151.205H675.382V125.674H745.56V151.079Z" fill="#F7931A"/>
<path d="M782.153 125.687V198.301H752.347V125.687H782.153Z" fill="#F7931A"/>
</svg>
